<mxfile>
    <diagram id="V3vRzwqk_VqXlD4Towf4" name="第 1 页">
        <mxGraphModel dx="686" dy="610" grid="1" gridSize="10" guides="1" tooltips="1" connect="1" arrows="1" fold="1" page="1" pageScale="1" pageWidth="827" pageHeight="1169" math="0" shadow="0">
            <root>
                <mxCell id="0"/>
                <mxCell id="1" parent="0"/>
                <mxCell id="10" value="Context" style="swimlane;fontStyle=1;align=center;verticalAlign=top;childLayout=stackLayout;horizontal=1;startSize=26;horizontalStack=0;resizeParent=1;resizeParentMax=0;resizeLast=0;collapsible=1;marginBottom=0;fontSize=16;" parent="1" vertex="1">
                    <mxGeometry x="80" y="119" width="160" height="80" as="geometry">
                        <mxRectangle x="80" y="120" width="140" height="26" as="alternateBounds"/>
                    </mxGeometry>
                </mxCell>
                <mxCell id="12" value="" style="line;strokeWidth=1;fillColor=none;align=left;verticalAlign=middle;spacingTop=-1;spacingLeft=3;spacingRight=3;rotatable=0;labelPosition=right;points=[];portConstraint=eastwest;" parent="10" vertex="1">
                    <mxGeometry y="26" width="160" height="8" as="geometry"/>
                </mxCell>
                <mxCell id="13" value="ContextInterface()" style="text;strokeColor=none;fillColor=none;align=left;verticalAlign=top;spacingLeft=4;spacingRight=4;overflow=hidden;rotatable=0;points=[[0,0.5],[1,0.5]];portConstraint=eastwest;fontSize=16;" parent="10" vertex="1">
                    <mxGeometry y="34" width="160" height="46" as="geometry"/>
                </mxCell>
                <mxCell id="46" value="Strategy" style="swimlane;fontStyle=0;childLayout=stackLayout;horizontal=1;startSize=21;fillColor=none;horizontalStack=0;resizeParent=1;resizeParentMax=0;resizeLast=0;collapsible=1;marginBottom=0;fontSize=15;align=center;" vertex="1" parent="1">
                    <mxGeometry x="400" y="119" width="160" height="65" as="geometry"/>
                </mxCell>
                <mxCell id="47" value="AlgorithmInterface()" style="text;strokeColor=none;fillColor=none;align=left;verticalAlign=top;spacingLeft=4;spacingRight=4;overflow=hidden;rotatable=0;points=[[0,0.5],[1,0.5]];portConstraint=eastwest;fontSize=15;" vertex="1" parent="46">
                    <mxGeometry y="21" width="160" height="44" as="geometry"/>
                </mxCell>
                <mxCell id="54" value="Strategy" style="swimlane;fontStyle=0;childLayout=stackLayout;horizontal=1;startSize=21;fillColor=none;horizontalStack=0;resizeParent=1;resizeParentMax=0;resizeLast=0;collapsible=1;marginBottom=0;fontSize=15;align=center;" vertex="1" parent="1">
                    <mxGeometry x="200" y="320" width="160" height="65" as="geometry"/>
                </mxCell>
                <mxCell id="55" value="AlgorithmInterface()" style="text;strokeColor=none;fillColor=none;align=left;verticalAlign=top;spacingLeft=4;spacingRight=4;overflow=hidden;rotatable=0;points=[[0,0.5],[1,0.5]];portConstraint=eastwest;fontSize=15;" vertex="1" parent="54">
                    <mxGeometry y="21" width="160" height="44" as="geometry"/>
                </mxCell>
                <mxCell id="57" value="Strategy" style="swimlane;fontStyle=0;childLayout=stackLayout;horizontal=1;startSize=21;fillColor=none;horizontalStack=0;resizeParent=1;resizeParentMax=0;resizeLast=0;collapsible=1;marginBottom=0;fontSize=15;align=center;" vertex="1" parent="1">
                    <mxGeometry x="400" y="320" width="160" height="65" as="geometry"/>
                </mxCell>
                <mxCell id="58" value="AlgorithmInterface()" style="text;strokeColor=none;fillColor=none;align=left;verticalAlign=top;spacingLeft=4;spacingRight=4;overflow=hidden;rotatable=0;points=[[0,0.5],[1,0.5]];portConstraint=eastwest;fontSize=15;" vertex="1" parent="57">
                    <mxGeometry y="21" width="160" height="44" as="geometry"/>
                </mxCell>
                <mxCell id="59" value="Strategy" style="swimlane;fontStyle=0;childLayout=stackLayout;horizontal=1;startSize=21;fillColor=none;horizontalStack=0;resizeParent=1;resizeParentMax=0;resizeLast=0;collapsible=1;marginBottom=0;fontSize=15;align=center;" vertex="1" parent="1">
                    <mxGeometry x="600" y="320" width="160" height="65" as="geometry"/>
                </mxCell>
                <mxCell id="60" value="AlgorithmInterface()" style="text;strokeColor=none;fillColor=none;align=left;verticalAlign=top;spacingLeft=4;spacingRight=4;overflow=hidden;rotatable=0;points=[[0,0.5],[1,0.5]];portConstraint=eastwest;fontSize=15;" vertex="1" parent="59">
                    <mxGeometry y="21" width="160" height="44" as="geometry"/>
                </mxCell>
                <mxCell id="61" value="strategy" style="endArrow=open;html=1;endSize=12;startArrow=diamondThin;startSize=14;startFill=0;edgeStyle=orthogonalEdgeStyle;fontSize=15;" edge="1" parent="1">
                    <mxGeometry relative="1" as="geometry">
                        <mxPoint x="240" y="140" as="sourcePoint"/>
                        <mxPoint x="400" y="140" as="targetPoint"/>
                    </mxGeometry>
                </mxCell>
                <mxCell id="65" value="" style="endArrow=none;html=1;fontSize=15;" edge="1" parent="1">
                    <mxGeometry width="50" height="50" relative="1" as="geometry">
                        <mxPoint x="320" y="320" as="sourcePoint"/>
                        <mxPoint x="480" y="280" as="targetPoint"/>
                        <Array as="points">
                            <mxPoint x="320" y="280"/>
                        </Array>
                    </mxGeometry>
                </mxCell>
                <mxCell id="66" value="" style="endArrow=block;endSize=16;endFill=0;html=1;fontSize=15;exitX=0.5;exitY=0;exitDx=0;exitDy=0;entryX=0.509;entryY=1.08;entryDx=0;entryDy=0;entryPerimeter=0;" edge="1" parent="1" source="57" target="47">
                    <mxGeometry x="-0.1318" y="-9" width="160" relative="1" as="geometry">
                        <mxPoint x="320" y="310" as="sourcePoint"/>
                        <mxPoint x="480" y="310" as="targetPoint"/>
                        <mxPoint as="offset"/>
                    </mxGeometry>
                </mxCell>
                <mxCell id="67" value="" style="endArrow=none;html=1;fontSize=15;entryX=0.5;entryY=0;entryDx=0;entryDy=0;" edge="1" parent="1" target="59">
                    <mxGeometry width="50" height="50" relative="1" as="geometry">
                        <mxPoint x="480" y="280" as="sourcePoint"/>
                        <mxPoint x="580" y="230" as="targetPoint"/>
                        <Array as="points">
                            <mxPoint x="680" y="280"/>
                        </Array>
                    </mxGeometry>
                </mxCell>
                <mxCell id="68" value="" style="rounded=0;whiteSpace=wrap;html=1;fontSize=15;align=center;strokeColor=#B20000;fontColor=#ffffff;fillColor=none;" vertex="1" parent="1">
                    <mxGeometry x="50" y="90" width="550" height="130" as="geometry"/>
                </mxCell>
                <mxCell id="69" value="" style="endArrow=classic;html=1;fontSize=15;fontColor=#FF0000;labelBorderColor=#FF0000;strokeColor=#FF0000;" edge="1" parent="1">
                    <mxGeometry width="50" height="50" relative="1" as="geometry">
                        <mxPoint x="320" y="90" as="sourcePoint"/>
                        <mxPoint x="380" y="67.5" as="targetPoint"/>
                    </mxGeometry>
                </mxCell>
                <mxCell id="71" value="稳定" style="text;html=1;align=center;verticalAlign=middle;resizable=0;points=[];autosize=1;fontSize=15;fontColor=#CC0000;" vertex="1" parent="1">
                    <mxGeometry x="375" y="60" width="50" height="20" as="geometry"/>
                </mxCell>
                <mxCell id="73" value="" style="rounded=0;whiteSpace=wrap;html=1;fontSize=15;fontColor=#ffffff;align=center;strokeColor=#006EAF;fillColor=none;" vertex="1" parent="1">
                    <mxGeometry x="180" y="250" width="600" height="170" as="geometry"/>
                </mxCell>
                <mxCell id="74" value="" style="endArrow=classic;html=1;fontSize=15;fontColor=#FF0000;exitX=-0.001;exitY=0.441;exitDx=0;exitDy=0;exitPerimeter=0;strokeColor=#007FFF;" edge="1" parent="1" source="73">
                    <mxGeometry width="50" height="50" relative="1" as="geometry">
                        <mxPoint x="90" y="340" as="sourcePoint"/>
                        <mxPoint x="130" y="320" as="targetPoint"/>
                    </mxGeometry>
                </mxCell>
                <mxCell id="75" value="变化" style="text;html=1;align=center;verticalAlign=middle;resizable=0;points=[];autosize=1;fontSize=15;fontColor=#007FFF;" vertex="1" parent="1">
                    <mxGeometry x="80" y="300" width="50" height="20" as="geometry"/>
                </mxCell>
            </root>
        </mxGraphModel>
    </diagram>
</mxfile>